# xmcd
#
# Track frame offsets: 
#        150
#        2004
#        6895
#        52109
#        69909
#        84840
#        122721
#        130325
#        165268
#        178701
#        195526
#        242447
#        256598
#
# Disc length: 4099 seconds
#
# Revision: 0
# Processed by: cddbd v1.5.2PL0 Copyright (c) Steve Scherf et al.
# Submitted via: ExactAudioCopyFreeDBPlugin 1.0
#
DISCID=9610010d
DTITLE=Roider Jackl - Die Jahre 1955 - 1964
DYEAR=1900
DGENRE=Folk
TTITLE0=Einleitungsgstanzl
TTITLE1=Ball mitten im Saal - Polka - Vorwort
TTITLE2=Rede in Innsbruck
TTITLE3=Gstanzlfolge in Innsbruck
TTITLE4=Handwerker-Lied
TTITLE5=Faschingsamstagskommentar
TTITLE6=Tiroler Landler
TTITLE7=Gstanzlfolge in Landshut
TTITLE8=Holzhacker Buam - Marsch
TTITLE9=Bayerische geschichtliche Ballade
TTITLE10=Rede im Hamburg
TTITLE11='s boarische Bier
TTITLE12=Faschingsamstagskommentar - Gstanzlfolge
EXTD=
EXTT0=
EXTT1=
EXTT2=
EXTT3=
EXTT4=
EXTT5=
EXTT6=
EXTT7=
EXTT8=
EXTT9=
EXTT10=
EXTT11=
EXTT12=
PLAYORDER=
